<svg xmlns="http://www.w3.org/2000/svg" width="60" height="60" stroke="none" stroke-linecap="round" stroke-linejoin="round" fill="#fff" fill-rule="evenodd">
    <circle cx="12.063" cy="15.504" fill="#e91e63" r="6.146"/>
    <circle cx="32.713" cy="7.146" fill="#2196f3" r="6.146"/>
    <circle cx="51.396" cy="24.846" fill="#ffc107" r="6.146"/>
    <path d="M53.61 60H43.284L30.247 44.112l12.592-7.904z" fill="#e0a80d"/>
    <path d="M53.24 37.875q-1.966-6.884-10.4-1.667L53.608 60H60l-6.75-22.125" fill="#ffc107"/>
    <path d="M20.966 32.8l-2.758-3.285q-6.39-7.866-8.604 0L1 60h3.933z" fill="#e91e63"/>
    <path d="M30.247 44.11l-9.28-11.3 5.97-10.168q5.53-9.342 9.71 0l6.193 13.574z" fill="#2196f3"/>
    <path d="M30.246 44.112L4.933 60l16.033-27.2z" fill="#cc155b"/>
    <path d="M43.283 60L30.246 44.112 4.933 60z" fill="#cc960e"/>
</svg>
